<svg xmlns="http://www.w3.org/2000/svg" width="138" height="42" viewBox="0 0 138 42" fill="none"><path d="M54.9456 10.2098C53.6303 9.62239 50.913 8.49247 47.9364 8.49247C44.8823 8.49247 42.7841 10.1246 42.7841 12.6804C42.7841 19.2806 56.8117 18.451 56.8117 27.616C56.8117 33.3867 51.9735 35.6869 46.4935 35.6869C44.2051 35.6399 41.9277 35.3589 39.6982 34.8484V31.9653C41.2684 32.7186 44.1996 33.8082 47.0898 33.8082C50.8265 33.8082 53.034 32.0505 53.034 28.4948C53.034 21.4238 39.4023 22.4686 39.4023 13.6982C39.4023 9.13814 43.0117 6.6272 48.66 6.6272C50.7729 6.63826 52.879 6.86212 54.9456 7.29529V10.2232V10.2098Z" fill="white"></path><path d="M63.9701 24.2665H73.6101L68.8128 11.5055L63.9701 24.2665ZM66.1366 12.0077C66.4747 11.3008 66.6901 10.543 66.7738 9.76582C66.7738 8.68074 65.6268 8.3041 63.5013 7.80191V7.07104H70.7836L81.7436 35.2295H77.6472L74.0789 25.8986H63.3784L60.0194 35.2295H57.3477L66.1366 12.0077Z" fill="white"></path><path d="M130.373 21.1725C130.373 15.8995 130.072 8.24115 123.491 8.24115C116.991 8.24115 116.527 15.4153 116.527 21.1725C116.527 26.4007 116.823 34.059 123.491 34.059C129.904 34.059 130.373 26.8849 130.373 21.1725ZM112.367 21.1725C112.367 12.2049 115.039 6.61353 123.491 6.61353C131.943 6.61353 134.533 12.846 134.533 21.1725C134.533 30.0415 131.902 35.6911 123.491 35.6911C114.743 35.6911 112.367 29.499 112.367 21.1725Z" fill="white"></path><path d="M90.0547 21.6792V22.7464C96.4541 22.7464 100.45 28.4094 100.924 35.2293H102.007V21.6792H90.0547Z" fill="white"></path><path d="M95.4039 33.8079C87.2476 33.8079 84.9992 26.7369 84.9992 19.7063C84.9992 15.1462 85.6774 8.49673 92.2816 8.49673C96.742 8.49673 97.7433 11.2588 97.9345 12.8909H102.095C101.84 9.4204 98.7401 6.61353 92.3681 6.61353C83.4517 6.61353 80.8164 12.0524 80.8164 20.065C80.8164 29.9294 84.7261 35.7136 93.4331 35.7136C95.2525 35.6967 97.0672 35.5302 98.8585 35.2159C98.8129 34.6195 98.7356 34.0321 98.64 33.4582C97.5789 33.7353 96.483 33.8606 95.3857 33.8303L95.4039 33.8079Z" fill="white"></path><path d="M32.5781 6.31323H36.1101V35.2294H32.5781V6.31323Z" fill="white"></path><path d="M105.898 6.31323H109.43V35.2294H105.898V6.31323Z" fill="white"></path><path d="M7.59624 11.2992C6.37189 7.9588 6.13522 7.53732 2.92188 7.03064V6.31323H10.0131L18.629 29.943L27.4998 6.31323H30.0305L19.1661 35.2294H16.681L7.57803 11.2992H7.59624Z" fill="white"></path></svg>